<svg xmlns="http://www.w3.org/2000/svg" viewBox="0 0 518.42 331.73"><defs><style>.cls-1{fill:#fff;}</style></defs><g id="Layer_2" data-name="Layer 2"><g id="Layer_1-2" data-name="Layer 1"><path class="cls-1" d="M518.42,165.86q0,77.05,0,154.11c0,11.51-.1,11.62-11.45,11.62q-154.54,0-309.07.14c-7.47,0-10.88-1.89-10.61-10.16.55-16.91.33-33.86.09-50.78-.08-6.12,1.91-8.84,8.38-8.87,6.65,0,9.3,2.4,9.11,9.1-.31,11.19.31,22.4-.17,33.57-.32,7.35,2.65,9.31,9.55,9.26,33-.24,66-.09,99-.09q87.79,0,175.61,0c12.18,0,12.18-.06,12.18-12.45V30.13c0-12.49,0-12.52-12-12.52H217c-12.13,0-12.14.05-12.17,12.41,0,10.33-.23,20.66.07,31,.19,6.57-2.88,8.27-8.89,8.35-6.36.09-8.68-2.31-8.59-8.6.24-16.35.05-32.71.06-49.07C187.46.2,187.57.05,198.86,0q88.68,0,177.35,0,65,0,130,.07c12.22,0,12.22,0,12.21,12.55Z"/><path class="cls-1" d="M232,165.18c.18-43.73,32-75.09,76.08-75,41.73.06,73.55,33.07,73.39,76.11-.17,43.37-32.11,75.53-74.92,75.42C263.24,241.57,231.82,209.33,232,165.18Zm21.58-1.09c.43,4.87.57,9.79,1.34,14.62,3.93,24.62,21.51,41.14,46.59,44a50.71,50.71,0,0,0,53.22-31.77c6.85-17.4,6.74-35.09-1-52.23-7.08-15.78-19.18-25.88-36.52-28.63C280.94,104.31,255.75,125.89,253.58,164.09Z"/><path class="cls-1" d="M0,165.18c.18-43.73,32-75.09,76.08-75,41.73.06,73.55,33.07,73.39,76.11-.17,43.37-32.11,75.53-74.92,75.42C31.24,241.57-.18,209.33,0,165.18Zm21.58-1.09c.43,4.87.57,9.79,1.34,14.62,3.93,24.62,21.51,41.14,46.59,44a50.71,50.71,0,0,0,53.22-31.77c6.85-17.4,6.74-35.09-1-52.23-7.08-15.78-19.18-25.88-36.52-28.63C48.94,104.31,23.75,125.89,21.58,164.09Z"/><path class="cls-1" d="M206.61,166.79c0,21.37-.17,42.73.1,64.09.09,6.78-1.56,10.11-9.22,9.7-7.16-.39-12.6,0-12.48-10.25.49-43,.37-86,.08-129-.05-7.85,3-10,10.24-9.74,6.67.22,11.67.21,11.44,9.43C206.24,122.9,206.6,144.85,206.61,166.79Z"/></g></g></svg>

